<svg xmlns="http://www.w3.org/2000/svg" viewBox="0 0 303.81 198"><defs><style>.cls-1{fill:#838384;}.cls-2{fill:#fff;}.cls-3{fill:#ededed;}</style></defs><g id="Layer_2" data-name="Layer 2"><g id="Layer_1-2" data-name="Layer 1"><polygon class="cls-1" points="227.82 124.78 227.82 106.03 211.82 106.03 211.82 97.99 164.82 97.99 164.82 131.03 143.82 131.03 143.82 198 164.82 198 201.82 198 211.82 198 219.82 198 227.82 198 250.82 198 250.82 124.78 227.82 124.78"/><rect class="cls-2" x="183.62" y="111.49" width="9" height="9"/><rect class="cls-2" x="183.62" y="128.74" width="9" height="9"/><rect class="cls-2" x="183.62" y="145.99" width="9" height="9"/><rect class="cls-2" x="183.62" y="163.24" width="9" height="9"/><rect class="cls-2" x="183.62" y="180.49" width="9" height="9"/><rect class="cls-2" x="157.82" y="142.8" width="9" height="9.08"/><rect class="cls-2" x="157.82" y="161.61" width="9" height="9.08"/><rect class="cls-2" x="157.82" y="180.42" width="9" height="9.08"/><rect class="cls-2" x="208.82" y="129.49" width="9" height="9"/><rect class="cls-2" x="208.82" y="146.49" width="9" height="9"/><rect class="cls-2" x="208.82" y="163.49" width="9" height="9"/><rect class="cls-2" x="208.82" y="180.49" width="9" height="9"/><rect class="cls-2" x="231.82" y="145.49" width="9" height="9"/><rect class="cls-2" x="231.82" y="162.49" width="9" height="9"/><rect class="cls-2" x="231.82" y="179.49" width="9" height="9"/><rect class="cls-1" x="264.81" y="128.49" width="39" height="69.51"/><rect class="cls-3" x="271.85" y="135.64" width="9" height="9"/><rect class="cls-3" x="287.76" y="135.49" width="9" height="9"/><rect class="cls-3" x="271.85" y="151.65" width="9" height="9"/><rect class="cls-3" x="287.76" y="151.5" width="9" height="9"/><rect class="cls-3" x="271.85" y="167.65" width="9" height="9"/><rect class="cls-3" x="287.76" y="167.5" width="9" height="9"/><rect class="cls-3" x="271.85" y="182.65" width="9" height="9"/><rect class="cls-3" x="287.76" y="182.5" width="9" height="9"/><rect class="cls-1" y="152.55" width="29.86" height="45.45"/><rect class="cls-2" x="10.86" y="157.41" width="8.14" height="8.59"/><rect class="cls-2" x="10.85" y="171.79" width="8.14" height="7.67"/><rect class="cls-2" x="10.87" y="185.25" width="8.14" height="7.75"/><rect class="cls-2" x="54.8" width="63" height="25"/><rect class="cls-1" x="43.84" y="10" width="86" height="187.99"/><rect class="cls-3" x="55.8" y="23" width="62" height="10"/><rect class="cls-3" x="55.8" y="45" width="62" height="10"/><rect class="cls-3" x="55.8" y="67" width="62" height="10"/><rect class="cls-3" x="55.8" y="89" width="62" height="10"/><rect class="cls-3" x="55.8" y="111" width="62" height="10"/><rect class="cls-3" x="55.8" y="133" width="62" height="10"/><rect class="cls-3" x="55.8" y="155" width="62" height="10"/><rect class="cls-3" x="55.8" y="177" width="62" height="10"/></g></g></svg>