<svg xmlns="http://www.w3.org/2000/svg" viewBox="0 0 172.06 78.98"><defs><style>.cls-1,.cls-5{fill:#e6eaeb;}.cls-1,.cls-2{stroke:#fff;}.cls-1,.cls-2,.cls-4,.cls-5,.cls-7{stroke-miterlimit:10;}.cls-2,.cls-7{fill:none;}.cls-3{fill:#303234;}.cls-4{fill:#3f3f3f;stroke:#3a3f3f;}.cls-5,.cls-7{stroke:#e6eaeb;}.cls-6{fill:#adb9c0;}.cls-8{fill:#ca333f;}.cls-9{fill:#717278;}</style></defs><g id="Layer_2" data-name="Layer 2"><g id="Layer_1-2" data-name="Layer 1"><path class="cls-1" d="M20.44,10.28l-2.37.93-.45.39-1.38,2.2S10,20,9.51,20.69,6.6,24.47,6.6,24.47l-.19.21a.45.45,0,0,0-.13.14,1.15,1.15,0,0,0-.12.69,18,18,0,0,1-1.52,2c-.25.14-.38.14-.5.7a12,12,0,0,0-.35,2.91l0,3.44v1.41l-.12.84v.27l0,3.57s-2.62,6-3.25,6.6a66.76,66.76,0,0,0,.25,8.59,8.07,8.07,0,0,0,.68,2.76s-.13.14,0,1.25a7.37,7.37,0,0,0,1.86,4.4s3.5,1.48,5.43,1.31c0,0-.53-10.11,4.05-14.05,0,0,2.53-3.64,8.83-4.7,0,0,6.94-.65,10.06,1.25a15,15,0,0,1,9.17,11s1.12,6.5.9,9.13l81.8.11s.11-10.68,3.27-14.88c0,0,2.51-4.75,9.45-6.09a20.13,20.13,0,0,1,12.51,1.07s7.89,2.53,8.2,15.41a35.15,35.15,0,0,1-.71,4.59c-.26.28,2,0,2,0s4.7-.48,6-.78l5.53-1.18s1.53-.72,1.52-1.83a59.37,59.37,0,0,1-7.48-.17l-.91-.68a2.88,2.88,0,0,1,.24-1.11s3.13-6.42,4-7.41c0,0,.25-.41,1.16-.15s2.58.36,2.85,1a7.45,7.45,0,0,0,.06-4.36,6.78,6.78,0,0,0-2.63-3.84,15.81,15.81,0,0,1-1.06-2.48s.64-.29.64-.56.06-4.3-.33-4.57l-2.11-1.89-.23,0-.39-.41-8.7-4.59s-7.77-3.36-10.87-3.73c0,0-6.33-1.44-9.16-1.26L127.6,23.4l-12.84-6.47L101.93,11.7s-7.12-2.81-9.7-2.77L86.81,7.76s-11-1.24-12-1.08c0,0-14.82-.49-16.88-.18,0,0-10.69.14-12.23.58a28,28,0,0,0-3.6,0s-8.88.54-9.26.82l-.91-.54-.74-.61L27.2,1,26.94.83v.42s3.68,5.9,3.95,6.32v.69s-6.56.92-7.33,1.07A8.9,8.9,0,0,0,20.44,10.28Z"/><polygon class="cls-2" points="30.91 8.26 32.84 7.96 31.93 7.41 30.9 7.57 30.91 8.26"/><ellipse class="cls-3" cx="25.11" cy="64.56" rx="13.61" ry="14.41" transform="translate(-0.9 0.36) rotate(-0.8)"/><ellipse class="cls-4" cx="25.11" cy="64.56" rx="8.1" ry="8.14" transform="translate(-0.9 0.36) rotate(-0.8)"/><path class="cls-5" d="M71.89,65.35a10.42,10.42,0,0,0,1-5.15A31.21,31.21,0,0,1,72,56.89c0-.55,0-13.31-.32-13.72,0,0-.39-9.83-.92-11.07,0,0-.43-2.77-.44-3.88,0,0-2.82-17.42-2.83-18l0-1.42s-17.13.55-18.41.71c0,0-8.75.54-11.7,1.69l-1.54.57s-5.12,11.3-5.62,12.56a48.63,48.63,0,0,1-2.5,5.3,7.89,7.89,0,0,0-.1,2.08s2.8,7.17,5.16,9.63L36,46.3a70.38,70.38,0,0,1,4.86,7c1.72,3,4.89,8.94,4.89,8.94s.08.94,2.2,2.66Z"/><path class="cls-6" d="M39.21,12.44s18.13-2.06,25.61-1.74c0,0,.71,14,1.4,17L33.74,26.24a24.66,24.66,0,0,1,2.49-5.72S39.6,12.85,39.21,12.44Z"/><path class="cls-6" d="M74.59,27.89,71.06,10.13s9.47.49,11.67.73c0,0,11,1.1,14.08,2.72,0,0,6,4.9,9.29,10.4a17.72,17.72,0,0,1,1.13,3c.37,1.31.55,2,.29,2.5-.43.89-1.94,1.14-3.65.81Z"/><path class="cls-7" d="M71.89,65.35s40.84.26,44.32.49c0,0,2.6.51,3.23,0a6.06,6.06,0,0,0,.61-2.22c.23-1.67,1.85-14.86,1.83-16.52s0-7.54-.13-8.76l-4.22-7.11-.65-.56-7.2-8.21-9-9.17a52.09,52.09,0,0,0-6.33-1.71A62,62,0,0,0,82.58,9.62l-5.67-.48s-5-.34-6.7-.18L67.5,8.82l2.85,19.4s1,.13,4,.36l30.18,2.63s5.81.75,7.6-.38c0,0,.69-.43.72-.71,0,0,0,0,0,0"/><path class="cls-8" d="M18.26,24.65l-8.12-.3L8,24.8s-1.8,2.38-2.57,2.53-.94,6.52-.67,7.49c0,0,.49.55,2.5,0,0,0,.73.12,2.88-2.54l2.66-2.95Z"/><polygon class="cls-2" points="3.33 62.98 3.31 61.48 4.92 62.2 5.01 63.51 3.33 62.98"/><path class="cls-2" d="M171.21,56s.2,5.2.12,8.53"/><path class="cls-9" d="M151,36.11s-.29-2.22,2.3-1.84a24.31,24.31,0,0,1,5.94,1.44s4,1.75,5.2,3c0,0,1.42.26,2,5l0,2.06a75.17,75.17,0,0,1-9.05-1.79S150.86,38.05,151,36.11Z"/><ellipse class="cls-3" cx="140.73" cy="64.56" rx="13.61" ry="14.41" transform="translate(-0.89 1.97) rotate(-0.8)"/><ellipse class="cls-4" cx="140.73" cy="64.56" rx="8.1" ry="8.14" transform="translate(-0.89 1.97) rotate(-0.8)"/></g></g></svg>